<svg width="111" height="111" viewBox="0 0 111 111" fill="none" xmlns="http://www.w3.org/2000/svg">
<g filter="url(#filter0_bd_28_3)">
<circle cx="55.5" cy="51.5" r="51.5" fill="url(#paint0_linear_28_3)" shape-rendering="crispEdges"/>
</g>
<path d="M72.4997 30.9955C70.9561 28.0615 68.5393 25.6168 65.5455 23.8435C62.553 22.0781 58.9407 21.0001 55.0202 21.0001C50.1876 20.9881 46.1726 22.2472 43.1422 23.9908C40.0998 25.7282 38.788 27.7511 38.788 27.7511C38.2767 28.1948 37.9883 28.8403 38.0004 29.5155C38.0142 30.1917 38.3256 30.8264 38.8527 31.248L43.0636 34.6207C43.9218 35.3079 45.1502 35.2821 45.9786 34.56C45.9786 34.56 46.4959 33.625 48.1169 32.699C49.747 31.7791 51.8605 31.0381 55.0202 31.0282C57.7761 31.0222 60.179 32.0506 61.819 33.4559C62.6336 34.1522 63.2422 34.9318 63.6152 35.645C63.9911 36.3641 64.1284 36.9927 64.1265 37.4701C64.1185 39.0833 63.8052 40.1384 63.3527 41.0375C63.0076 41.7089 62.5571 42.3047 61.9772 42.8825C61.1118 43.7478 59.9383 44.5474 58.6216 45.2824C57.3038 46.0263 55.8835 46.6807 54.4483 47.4715C52.8103 48.3785 51.0768 49.6814 49.7959 51.6368C49.1573 52.6034 48.658 53.7093 48.3409 54.8759C48.0195 56.0436 47.8745 57.268 47.8745 58.5171C47.8745 59.8497 47.8745 60.9438 47.8745 60.9438C47.8745 62.1999 48.8928 63.2184 50.1491 63.2184H55.629C56.8851 63.2184 57.9036 62.1999 57.9036 60.9438C57.9036 60.9438 57.9036 59.8497 57.9036 58.5171C57.9036 58.0358 57.9583 57.7255 58.0111 57.5285C58.1017 57.2341 58.1524 57.1605 58.3005 56.9815C58.4517 56.8113 58.757 56.5509 59.3198 56.2395C60.1424 55.7771 61.4641 55.1525 62.9608 54.3439C65.2016 53.1186 67.9257 51.4557 70.2232 48.7116C71.366 47.3422 72.3764 45.6931 73.0735 43.7935C73.7768 41.8939 74.1566 39.7586 74.1547 37.4701C74.1526 35.1516 73.524 32.9497 72.4997 30.9955Z" fill="white" fill-opacity="0.8"/>
<path d="M52.8907 68.6296C49.4744 68.6296 46.7046 71.4004 46.7046 74.8157C46.7046 78.2301 49.4746 81 52.8907 81C56.3051 81 59.0738 78.2301 59.0738 74.8157C59.0738 71.4004 56.3051 68.6296 52.8907 68.6296Z" fill="white" fill-opacity="0.8"/>
<defs>
<filter id="filter0_bd_28_3" x="0" y="-4" width="111" height="115" filterUnits="userSpaceOnUse" color-interpolation-filters="sRGB">
<feFlood flood-opacity="0" result="BackgroundImageFix"/>
<feGaussianBlur in="BackgroundImageFix" stdDeviation="2"/>
<feComposite in2="SourceAlpha" operator="in" result="effect1_backgroundBlur_28_3"/>
<feColorMatrix in="SourceAlpha" type="matrix" values="0 0 0 0 0 0 0 0 0 0 0 0 0 0 0 0 0 0 127 0" result="hardAlpha"/>
<feOffset dy="4"/>
<feGaussianBlur stdDeviation="2"/>
<feComposite in2="hardAlpha" operator="out"/>
<feColorMatrix type="matrix" values="0 0 0 0 0 0 0 0 0 0 0 0 0 0 0 0 0 0 0.25 0"/>
<feBlend mode="normal" in2="effect1_backgroundBlur_28_3" result="effect2_dropShadow_28_3"/>
<feBlend mode="normal" in="SourceGraphic" in2="effect2_dropShadow_28_3" result="shape"/>
</filter>
<linearGradient id="paint0_linear_28_3" x1="55.5" y1="0" x2="55.5" y2="103" gradientUnits="userSpaceOnUse">
<stop stop-color="#80C5D2" stop-opacity="0.69"/>
<stop offset="1" stop-color="#67ABB8"/>
</linearGradient>
</defs>
</svg>
