<?xml version="1.0" encoding="UTF-8"?><svg id="_层_2" xmlns="http://www.w3.org/2000/svg" viewBox="0 0 1101.92 289.82"><g id="_层_1-2"><g><path d="M40.99,52.45H11.5L21.21,10.09h115.05l-9.71,42.36h-29.84L55.73,234H0L40.99,52.45Z"/><path d="M122.96,114.65c7.19-32.28,11.5-52.45,13.3-61.86h53.93c-.72,5.72-2.16,15.8-3.96,23.53,9.71-19.16,25.89-25.89,43.14-26.22l-14.02,61.86c-34.16-2.02-39.19,14.12-43.5,33.29l-20.13,88.76h-55.73l26.96-119.36Z"/><path d="M245.91,52.79h55.73l-40.99,181.22h-55.73L245.91,52.79ZM257.77,0h55.73l-9.35,41.69h-55.73L257.77,0Z"/><path d="M340.1,221.9l-15.82,67.92h-55.37l41.71-184.92c5.39-24.21,10.07-46.06,11.15-52.11h54.65c-.36,4.03-1.44,12.44-2.52,16.81,6.83-9.75,19.06-19.5,38.11-19.5,26.96,0,35.23,18.83,27.68,52.79l-18.7,84.39c-6.47,27.91-18.7,49.76-52.13,49.76-7.19,0-22.65-2.02-28.76-15.13Zm26.25-41.69l16.54-74.64c1.8-8.07,.36-13.11-5.39-13.11-6.83,0-9.71,5.38-12.22,16.14l-15.46,69.26c-2.16,10.09-1.08,16.14,5.39,16.14,4.67,0,8.63-2.35,11.15-13.79Z"/><path d="M429.26,234L482.11,0h55.73l-52.85,234h-55.73Z"/><path d="M577.39,155.67l-6.11,29.59c-2.16,9.75,1.08,12.78,5.39,12.78,6.47,0,8.99-3.36,11.5-13.79l2.88-12.44h53.93l-1.44,8.41c-7.55,35.3-24.09,56.82-71.91,56.82-52.13,0-62.2-26.9-52.85-68.59l12.94-57.49c8.99-39,27.32-60.85,73.34-60.85,52.13,0,61.84,25.55,52.85,65.9l-8.99,39.67h-71.55Zm24.45-33.28l3.24-14.46c3.24-13.78,3.96-20.17-3.95-20.17-7.19,0-8.99,4.03-12.58,21.18l-2.88,13.45h16.18Z"/><path d="M800.29,10.09l-39.55,174.49c-1.8,8.07-.36,12.44,5.03,12.44,6.47,0,8.27-4.03,10.43-12.44L815.75,10.09h57.52l-38.11,167.77c-9.35,41.35-24.81,58.84-74.42,58.84s-62.92-23.2-54.29-61.53L743.84,10.09h56.45Z"/><path d="M873.98,103.89c5.39-24.21,10.07-46.73,10.79-51.1h54.29c-.36,3.03-1.44,10.76-2.16,14.12,6.83-7.4,17.62-16.81,37.39-16.81,28.76,0,36.31,18.49,30.2,44.72l-31.28,139.19h-56.09l28.76-128.1c1.44-5.72,2.16-13.11-4.67-13.11-6.47,0-10.07,4.37-12.58,15.13l-28.4,126.08h-55.73l29.48-130.11Z"/><path d="M1034.33,52.79h55.73l-40.99,181.22h-55.73l40.99-181.22Zm11.86-52.79h55.73l-9.35,41.69h-55.73l9.35-41.69Z"/></g></g></svg>